Coordinates
version=1
nRows=13
nColumns=40
inDegrees=yes

Units are S.I. units (second, meters, Newtons, ...)
If the header above contains a line with 'inDegrees', this indicates whether rotational values are in degrees (yes) or radians (no).

endheader
time	pelvis_tilt	pelvis_list	pelvis_rotation	pelvis_tx	pelvis_ty	pelvis_tz	hip_flexion_r	hip_adduction_r	hip_rotation_r	knee_angle_r	knee_angle_r_beta	ankle_angle_r	subtalar_angle_r	mtp_angle_r	hip_flexion_l	hip_adduction_l	hip_rotation_l	knee_angle_l	knee_angle_l_beta	ankle_angle_l	subtalar_angle_l	mtp_angle_l	lumbar_extension	lumbar_bending	lumbar_rotation	arm_flex_r	arm_add_r	arm_rot_r	elbow_flex_r	pro_sup_r	wrist_flex_r	wrist_dev_r	arm_flex_l	arm_add_l	arm_rot_l	elbow_flex_l	pro_sup_l	wrist_flex_l	wrist_dev_l
      1.06000000	      2.29820955	      7.41456207	    -81.83420531	      0.23338972	      0.88004870	      0.91562524	     33.29251940	     -6.89494742	     -7.86002138	      2.47064004	      0.04312080	      4.70408780	      0.00000000	      0.00000000	    -15.24079915	      3.55433875	     14.66375781	      5.07731698	      0.08861590	     15.08317524	      0.00000000	      0.00000000	     -4.61419041	     -3.18699904	    -12.35171307	      0.00000000	      0.00000000	      0.00000000	      0.00000000	      0.00000000	      0.00000000	      0.00000000	      0.00000000	      0.00000000	      0.00000000	      0.00000000	      0.00000000	      0.00000000	      0.00000000
      1.07000000	      2.43053526	      7.25479509	    -81.86689783	      0.23331011	      0.87853339	      0.93361128	     32.97606502	     -6.70853326	     -6.93049600	      3.38581954	      0.05909370	      2.76390270	      0.00000000	      0.00000000	    -15.03247556	      3.69243592	     14.04622517	      7.91005108	      0.13805644	     14.39310878	      0.00000000	      0.00000000	     -4.60775703	     -3.08305360	    -12.33647838	      0.00000000	      0.00000000	      0.00000000	      0.00000000	      0.00000000	      0.00000000	      0.00000000	      0.00000000	      0.00000000	      0.00000000	      0.00000000	      0.00000000	      0.00000000	      0.00000000
      1.08000000	      2.43806193	      7.20540479	    -82.04893714	      0.23293559	      0.87736530	      0.95163815	     32.68832196	     -6.35551359	     -5.96309010	      4.18016268	      0.07295760	      0.00902484	      0.00000000	      0.00000000	    -14.36106190	      3.71896803	     12.96937030	     11.18793536	      0.19526631	     13.37750669	      0.00000000	      0.00000000	     -4.43402159	     -2.84359922	    -12.07883646	      0.00000000	      0.00000000	      0.00000000	      0.00000000	      0.00000000	      0.00000000	      0.00000000	      0.00000000	      0.00000000	      0.00000000	      0.00000000	      0.00000000	      0.00000000	      0.00000000
      1.09000000	      2.40383275	      7.05521680	    -82.27643474	      0.23247550	      0.87693235	      0.96966296	     32.32009724	     -6.00157677	     -5.29588518	      5.16165182	      0.09008782	     -2.71446989	     -0.00000000	      0.00000000	    -13.45075449	      3.64038618	     11.55254561	     14.85521839	      0.25927247	     11.61331326	      0.00000000	      0.00000000	     -4.38515769	     -2.52931228	    -11.79166327	      0.00000000	      0.00000000	      0.00000000	      0.00000000	      0.00000000	      0.00000000	     -0.00000000	      0.00000000	     -0.00000000	     -0.00000000	      0.00000000	      0.00000000	      0.00000000	      0.00000000
      1.10000000	      2.35224961	      6.74757843	    -82.56479507	      0.23180973	      0.87724445	      0.98763982	     31.92264089	     -5.66497814	     -4.93115134	      6.54600532	      0.11424935	     -4.88317509	      0.00000000	      0.00000000	    -12.38393379	      3.44380177	      9.85902904	     18.87492512	      0.32942959	      9.22385587	      0.00000000	      0.00000000	     -4.55254056	     -2.17814319	    -11.50664457	      0.00000000	      0.00000000	      0.00000000	      0.00000000	      0.00000000	      0.00000000	      0.00000000	      0.00000000	      0.00000000	      0.00000000	      0.00000000	      0.00000000	      0.00000000	      0.00000000
      1.11000000	      2.18414963	      6.46345727	    -82.91676144	      0.23081877	      0.87795816	      1.00563484	     31.71757169	     -5.25141094	     -4.72353364	      8.38250373	      0.14630229	     -6.58446045	      0.00000000	      0.00000000	    -10.91630338	      2.98210649	      7.71874958	     23.32198073	      0.40704535	      6.25120807	      0.00000000	      0.00000000	     -4.66400968	     -1.73077719	    -11.06130382	      0.00000000	      0.00000000	      0.00000000	      0.00000000	      0.00000000	      0.00000000	      0.00000000	      0.00000000	      0.00000000	      0.00000000	      0.00000000	      0.00000000	      0.00000000	      0.00000000
      1.12000000	      1.87617168	      6.29108695	    -83.34516153	      0.22942522	      0.87883146	      1.02343307	     31.86449821	     -4.70564327	     -4.55957513	     10.78710974	      0.18827058	     -7.37651014	      0.00000000	      0.00000000	     -8.99139809	      2.23103500	      5.38653576	     28.12989970	      0.49095937	      2.74179335	      0.00000000	      0.00000000	     -4.65337853	     -1.16435092	    -10.46836050	      0.00000000	      0.00000000	      0.00000000	      0.00000000	      0.00000000	      0.00000000	      0.00000000	      0.00000000	      0.00000000	      0.00000000	      0.00000000	      0.00000000	      0.00000000	      0.00000000
      1.13000000	      1.73780882	      6.47183974	    -83.86196708	      0.22782649	      0.87941634	      1.04065491	     32.57323927	     -4.34948831	     -4.13391179	     13.67801516	      0.23872640	     -6.94688295	     -0.00000000	      0.00000000	     -6.38207652	      1.58345367	      3.15057545	     33.33114327	      0.58173819	     -0.83949183	     -0.00000000	     -0.00000000	     -4.33104638	     -0.86836498	     -9.82377270	      0.00000000	     -0.00000000	     -0.00000000	      0.00000000	      0.00000000	     -0.00000000	      0.00000000	     -0.00000000	      0.00000000	     -0.00000000	      0.00000000	      0.00000000	     -0.00000000	      0.00000000
      1.14000000	      1.39662618	      6.35992517	    -84.33706473	      0.22603739	      0.88072819	      1.05796135	     32.82410888	     -3.76568228	     -3.98965061	     16.47290347	      0.28750640	     -5.82988647	      0.00000000	      0.00000000	     -3.96752969	      0.50586260	      1.01133183	     38.56168699	      0.67302840	     -4.32749166	      0.00000000	      0.00000000	     -4.34627327	     -0.33278443	     -9.22293728	      0.00000000	      0.00000000	      0.00000000	      0.00000000	      0.00000000	      0.00000000	      0.00000000	      0.00000000	      0.00000000	      0.00000000	      0.00000000	      0.00000000	      0.00000000	      0.00000000
      1.15000000	      0.99519339	      6.35161918	    -84.83454644	      0.22411258	      0.88218516	      1.07499514	     32.94183150	     -3.06983967	     -3.77448248	     18.89389785	      0.32976073	     -4.25638923	      0.00000000	      0.00000000	     -1.31344446	     -0.70616031	     -0.86990254	     43.86085075	      0.76551626	     -7.30903538	      0.00000000	      0.00000000	     -4.25638287	      0.22425605	     -8.56593948	      0.00000000	      0.00000000	      0.00000000	      0.00000000	      0.00000000	      0.00000000	      0.00000000	      0.00000000	      0.00000000	      0.00000000	      0.00000000	      0.00000000	      0.00000000	      0.00000000
      1.16000000	      0.49475111	      6.37130374	    -85.32782909	      0.22205153	      0.88397779	      1.09172219	     32.72598599	     -2.20225856	     -3.51231005	     20.67008339	      0.36076101	     -2.54844180	      0.00000000	      0.00000000	      1.43542444	     -2.09279163	     -2.49127059	     49.05183856	      0.85611609	     -9.58606779	      0.00000000	      0.00000000	     -4.18312951	      0.86341871	     -7.92780251	      0.00000000	      0.00000000	      0.00000000	      0.00000000	      0.00000000	      0.00000000	      0.00000000	      0.00000000	      0.00000000	      0.00000000	      0.00000000	      0.00000000	      0.00000000	      0.00000000
      1.17000000	     -0.15385551	      6.34039524	    -85.81026412	      0.21977715	      0.88631964	      1.10829793	     31.95856373	     -1.07217076	     -3.13415587	     21.52552629	      0.37569131	     -0.86596118	      0.00000000	      0.00000000	      4.13019656	     -3.69066243	     -3.85167864	     53.95994835	      0.94177876	    -11.07409110	      0.00000000	      0.00000000	     -4.18644071	      1.60868599	     -7.26268971	      0.00000000	      0.00000000	      0.00000000	      0.00000000	      0.00000000	      0.00000000	      0.00000000	      0.00000000	      0.00000000	      0.00000000	      0.00000000	      0.00000000	      0.00000000	      0.00000000
      1.18000000	     -0.68840580	      6.47938213	    -86.32451579	      0.21777979	      0.88881550	      1.12438456	     31.08006049	     -0.07387730	     -2.82555072	     21.79312113	      0.38036172	      0.45775497	      0.00000000	      0.00000000	      7.01139115	     -5.06220054	     -4.93059230	     58.50751153	      1.02114871	    -11.61604765	      0.00000000	      0.00000000	     -4.08361596	      2.27188113	     -6.60592569	      0.00000000	      0.00000000	      0.00000000	      0.00000000	      0.00000000	      0.00000000	      0.00000000	      0.00000000	      0.00000000	      0.00000000	      0.00000000	      0.00000000	      0.00000000	      0.00000000
